<?xml version="1.0" encoding="UTF-8" standalone="no"?>
<!--?xml version="1.0" standalone="no"?-->

<svg
   version="1.0"
   width="126.01287"
   height="126.01287"
   viewBox="0 0 126.01287 72.247379"
   preserveAspectRatio="xMidYMid "
   class="svg"
   id="svg76"
   xmlns="http://www.w3.org/2000/svg"
   xmlns:svg="http://www.w3.org/2000/svg">
  <defs
     id="defs80" />
  <g
     transform="matrix(0.1,0,0,-0.1,-86.993565,82.490551)"
     fill="#9a9a9a"
     stroke="none"
     id="g74" />
  <g
     id="g55343"
     transform="translate(-86.993565,-52.392195)">
    <circle
       style="fill:#77bfff;stroke:#1a1a1a;stroke-width:5.76139;fill-opacity:1"
       id="path264"
       cx="150"
       cy="88.515884"
       r="60.12574" />
    <g
       transform="matrix(0.09147093,0,0,-0.09147093,47.261907,168.45194)"
       fill="#040404"
       stroke="none"
       id="g72">
      <path
         class="node"
         id="node1"
         d="m 1099,1244 c -13,-15 -58,-52 -99,-84 C 855,1049 825,999 833,882 c 2,-42 10,-105 16,-139 11,-58 6,-107 -13,-153 -5,-11 3,-19 25,-27 17,-7 33,-21 36,-32 5,-20 12,-21 210,-21 h 206 l -5,45 c -8,62 -48,140 -110,209 l -52,59 53,-7 c 30,-4 82,-18 115,-32 l 61,-25 53,55 c 56,58 64,81 31,91 -11,4 -57,45 -102,91 -45,46 -101,94 -124,105 -36,18 -43,25 -43,50 0,35 -20,76 -47,102 -19,16 -21,16 -44,-9 z" />
      <path
         class="node"
         id="node3"
         d="m 885,470 c -16,-26 14,-30 216,-30 202,0 209,1 209,20 0,19 -7,20 -209,20 -129,0 -212,-4 -216,-10 z" />
    </g>
    <path
       style="font-weight:bold;font-size:29.0549px;line-height:0.05;font-family:'Liberation Mono';-inkscape-font-specification:'Liberation Mono Bold';letter-spacing:3.22494px;word-spacing:0px"
       d="m 224.92908,101.57231 -15.73669,-2.297977 0.60473,-4.141234 15.73669,2.297978 0.83227,-5.69946 3.20068,0.467386 -2.26928,15.540157 -3.20068,-0.46739 z m -20.82319,24.89142 q -2.26732,-1.20542 -2.71923,-3.43802 -0.4519,-2.23261 1.00659,-4.97595 l 3.876,-7.29051 16.89846,8.98406 -3.49639,6.57649 q -1.45184,2.73081 -3.30008,3.54774 -1.84237,0.83611 -3.89675,-0.2561 -1.44056,-0.76587 -1.99062,-2.11876 -0.53753,-1.34622 0.0116,-3.25551 -1.3643,2.02219 -3.00926,2.57764 -1.65162,0.56797 -3.3803,-0.35108 z m 9.8455,-0.8391 q 2.00426,1.06557 3.11645,-1.02638 l 1.39189,-2.61807 -3.996,-2.12448 -1.40522,2.64313 q -1.09886,2.0669 0.89288,3.1258 z m -7.55437,-2.71482 q 1.10234,0.58606 2.04406,0.23516 0.95425,-0.34424 1.62689,-1.60944 l 1.66495,-3.13166 -4.68497,-2.49076 -1.71157,3.21935 q -1.33196,2.50533 1.06064,3.77735 z m -6.95731,14.97222 q -2.14885,-2.36045 -4.04837,-2.97181 -1.89951,-0.61136 -3.35775,0.71615 -1.69952,1.54718 -0.1875,4.85189 l -3.36064,2.06175 q -2.6541,-5.71835 1.36391,-9.37617 2.94794,-2.68368 6.20057,-2.22977 3.25169,0.47396 6.53705,4.08282 6.58026,7.22823 0.62143,12.65288 -1.9513,1.77639 -4.19861,1.94208 -2.2578,0.17525 -4.72,-1.28601 l 2.2232,-3.29012 q 1.31658,0.83507 2.47898,0.88961 1.17195,0.065 1.95876,-0.65124 2.85353,-2.59773 -1.51103,-7.39206 z m -28.68716,7.12338 3.13259,7.51668 4.75358,-1.98107 -3.13259,-7.51668 3.8631,-1.60995 7.36214,17.6655 -3.8631,1.60996 -2.89792,-6.95358 -4.75358,1.98106 2.89792,6.95358 -3.8631,1.60996 -7.36214,-17.66551 z m -10.90882,3.21052 0.97984,19.11312 -13.71497,0.7031 -0.16561,-3.23038 9.53531,-0.48883 -0.23534,-4.59055 -8.67103,0.44452 -0.16561,-3.23038 8.67103,-0.44453 -0.24768,-4.83141 -10.11621,0.51862 -0.16561,-3.23039 z m -36.25382,0.93348 q 0.78523,-2.60826 3.23205,-3.50139 2.42914,-0.88364 5.97475,0.18378 3.1924,0.96108 4.79806,2.91125 1.60565,1.95016 1.40325,4.68944 l -4.02296,-0.66294 q 0.072,-1.37102 -0.69476,-2.41673 -0.77084,-1.03213 -2.4961,-1.55152 -1.79318,-0.53984 -2.82078,-0.22694 -1.04119,0.30882 -1.40517,1.51786 -0.26993,0.89659 0.30678,1.73692 0.57262,0.85392 1.91985,1.64473 2.70804,1.58569 3.76167,2.46589 1.03596,0.8897 1.55964,1.75852 0.52368,0.86882 0.6559,1.85685 0.11454,0.99751 -0.21264,2.08429 -0.7157,2.37732 -3.03471,3.1904 -2.3326,0.80899 -5.45708,-0.13164 -3.04297,-0.9161 -4.39066,-2.64044 -1.35177,-1.71076 -1.09372,-4.38884 l 4.00383,0.77571 q -0.1507,2.66594 2.41681,3.4389 1.43998,0.43351 2.36431,0.11915 0.92025,-0.30078 1.22288,-1.30605 0.2004,-0.66565 -0.0314,-1.22437 -0.23591,-0.54513 -0.76674,-1.04571 -0.54851,-0.49108 -2.3398,-1.57854 -2.3658,-1.39376 -3.50474,-2.58115 -1.14303,-1.17381 -1.45434,-2.4528 -0.3113,-1.27899 0.10585,-2.66463 z M 104.70539,136.7063 q 1.61809,-2.19121 4.22277,-2.20774 2.58484,-0.0135 5.56351,2.18605 2.68195,1.98048 3.53667,4.3576 0.85473,2.37712 -0.25875,4.88805 l -3.5644,-1.97959 q 0.52971,-1.26662 0.16011,-2.50952 -0.37803,-1.23149 -1.82742,-2.30179 -1.50646,-1.11243 -2.57941,-1.16404 -1.08436,-0.06 -1.83441,0.95567 -0.55622,0.75323 -0.29636,1.73874 0.25144,0.99692 1.25346,2.1954 2.01547,2.40537 2.71094,3.5891 0.67562,1.18672 0.87597,2.18118 0.20034,0.99446 -0.008,1.96927 -0.22824,0.97778 -0.90245,1.89079 -1.47482,1.99719 -3.93219,1.98141 -2.46878,-0.0242 -5.09366,-1.96254 -2.55641,-1.88778 -3.244339,-3.96537 -0.696354,-2.06617 0.448908,-4.50073 l 3.508391,2.07932 q -1.0401,2.45931 1.11687,4.05212 1.20973,0.89332 2.18594,0.90876 0.96778,0.0269 1.59141,-0.81767 0.41296,-0.55922 0.38293,-1.16337 -0.0385,-0.59275 -0.3696,-1.24291 -0.35099,-0.64717 -1.67116,-2.27457 -1.75789,-2.10936 -2.43019,-3.61106 -0.68072,-1.49029 -0.5429,-2.79938 0.13781,-1.3091 0.99742,-2.47318 z"
       id="text6168"
       transform="matrix(-0.6077557,-0.25421551,0.25421551,-0.6077557,218.75882,179.30479)"
       aria-label="TBCHESS" />
    <path
       style="font-weight:bold;font-size:8.35957px;line-height:0.05;font-family:'Liberation Mono';-inkscape-font-specification:'Liberation Mono Bold';letter-spacing:0.927873px;word-spacing:0px;stroke-width:0.287717"
       d="m 126.77358,138.22444 v -5.50638 h 3.9512 v 0.93066 h -2.74706 v 1.32251 h 2.49807 v 0.93066 h -2.49807 v 1.3919 h 2.91442 v 0.93065 z m 9.89155,-1.28985 q 0,0.64084 -0.52655,1.00821 -0.52248,0.36328 -1.44905,0.36328 -0.91025,0 -1.39598,-0.28573 -0.48166,-0.28981 -0.64085,-0.898 l 1.00821,-0.15103 q 0.0857,0.3143 0.29389,0.44492 0.21226,0.13062 0.73473,0.13062 0.48166,0 0.70207,-0.12246 0.22042,-0.12245 0.22042,-0.38369 0,-0.21225 -0.1796,-0.33471 -0.17552,-0.12653 -0.60003,-0.21225 -0.97147,-0.19185 -1.31026,-0.35512 -0.33879,-0.16735 -0.51839,-0.42859 -0.17552,-0.26532 -0.17552,-0.64901 0,-0.63268 0.48574,-0.98372 0.48982,-0.35512 1.38373,-0.35512 0.7878,0 1.26537,0.30614 0.48165,0.30614 0.60003,0.88575 l -1.01638,0.10613 q -0.049,-0.2694 -0.24082,-0.40002 -0.19185,-0.1347 -0.6082,-0.1347 -0.40818,0 -0.61227,0.10613 -0.20409,0.10205 -0.20409,0.34696 0,0.19184 0.15511,0.30613 0.15919,0.11021 0.53064,0.18368 0.51839,0.10613 0.91841,0.22042 0.4041,0.11021 0.64492,0.26532 0.24491,0.15511 0.38778,0.40002 0.14694,0.24083 0.14694,0.62044 z m 2.77694,-2.35113 h -0.68166 v -0.77555 h 0.73881 l 0.3592,-1.15107 h 0.7184 v 1.15107 h 1.5715 v 0.77555 h -1.5715 v 2.16336 q 0,0.3592 0.0653,0.48574 0.0694,0.12245 0.22041,0.19593 0.15103,0.0694 0.42451,0.0694 0.50615,0 1.04087,-0.11021 v 0.75922 q -0.57962,0.0939 -0.82045,0.11021 -0.24083,0.0204 -0.50206,0.0204 -0.51839,0 -0.86943,-0.13879 -0.34695,-0.14286 -0.52655,-0.44083 -0.17552,-0.30206 -0.17552,-0.84494 z m 6.52405,3.64098 v -1.24495 h 1.17965 v 1.24495 z m 4.52804,0 v -0.79595 q 0.20409,-0.449 0.57962,-0.898 0.37961,-0.45309 1.10209,-1.04087 0.56329,-0.46124 0.73065,-0.63676 0.16735,-0.17552 0.26123,-0.33879 0.098,-0.16736 0.098,-0.33879 0,-0.2939 -0.19185,-0.46125 -0.19184,-0.16736 -0.56329,-0.16736 -0.36736,0 -0.56329,0.20001 -0.19185,0.19593 -0.24899,0.59187 l -1.15516,-0.0653 q 0.098,-0.80004 0.59595,-1.22047 0.50206,-0.42042 1.36333,-0.42042 0.88983,0 1.40822,0.40818 0.5184,0.4041 0.5184,1.08576 0,0.44492 -0.28165,0.86943 -0.27756,0.42043 -0.83677,0.85718 -0.79188,0.61228 -1.06536,0.88168 -0.27348,0.2694 -0.39594,0.54696 h 2.66952 v 0.9429 z m 9.97727,-2.75523 q 0,1.38374 -0.52247,2.1103 -0.52248,0.72657 -1.51844,0.72657 -1.00005,0 -1.51027,-0.72248 -0.50615,-0.72657 -0.50615,-2.11439 0,-1.4368 0.4939,-2.13479 0.49798,-0.70207 1.55517,-0.70207 1.02046,0 1.51436,0.71023 0.4939,0.71024 0.4939,2.12663 z m -1.15107,0 q 0,-0.7184 -0.0857,-1.13474 -0.0857,-0.42043 -0.26532,-0.61228 -0.1796,-0.19184 -0.51431,-0.19184 -0.35104,0 -0.5388,0.19184 -0.18776,0.19185 -0.27348,0.61228 -0.0816,0.41634 -0.0816,1.13474 0,0.71024 0.0857,1.13067 0.0898,0.42042 0.27348,0.61227 0.18368,0.19185 0.51839,0.19185 0.47349,0 0.67759,-0.44492 0.20409,-0.44492 0.20409,-1.48987 z m -1.31843,0.48982 v -1.01637 h 0.87759 v 1.01637 z m 4.38109,2.26541 v -0.79595 q 0.20409,-0.449 0.57962,-0.898 0.37961,-0.45309 1.10209,-1.04087 0.56329,-0.46124 0.73065,-0.63676 0.16735,-0.17552 0.26124,-0.33879 0.098,-0.16736 0.098,-0.33879 0,-0.2939 -0.19185,-0.46125 -0.19184,-0.16736 -0.56329,-0.16736 -0.36736,0 -0.56329,0.20001 -0.19184,0.19593 -0.24899,0.59187 l -1.15516,-0.0653 q 0.098,-0.80004 0.59595,-1.22047 0.50206,-0.42042 1.36333,-0.42042 0.88984,0 1.40823,0.40818 0.51839,0.4041 0.51839,1.08576 0,0.44492 -0.28165,0.86943 -0.27756,0.42043 -0.83677,0.85718 -0.79187,0.61228 -1.06536,0.88168 -0.27348,0.2694 -0.39593,0.54696 h 2.66951 v 0.9429 z m 6.05056,0 v -0.8531 h 1.58783 v -3.6369 q -0.15919,0.33471 -0.63676,0.56329 -0.4735,0.22858 -0.99597,0.22858 v -0.87351 q 0.56737,0 1.01637,-0.24899 0.449,-0.24899 0.67759,-0.68575 h 1.08576 v 4.65328 h 1.31843 v 0.8531 z"
       id="text35089"
       transform="rotate(-0.15663417)"
       aria-label="Est.2021" />
    <text
       xml:space="preserve"
       style="font-size:40px;line-height:1.25;font-family:'Adobe Garamond Pro';-inkscape-font-specification:'Adobe Garamond Pro';letter-spacing:0px;word-spacing:0px"
       x="121.65176"
       y="19.806662"
       id="text62593"><tspan
         id="tspan62591" /></text>
  </g>
</svg>
